<mxfile host="drawio-plugin" modified="2023-10-30T13:55:32.632Z" agent="5.0 (Windows NT 10.0; Win64; x64) AppleWebKit/537.36 (KHTML, like Gecko) Chrome/111.0.0.0 Safari/537.36" etag="09Z9aqRs93JJZKwtAw9u" version="20.5.3" type="embed" pages="2"><diagram name="Kontext-Sicht" id="t0sFgWNT8tQEyjmQq_ZU"><mxGraphModel dx="1559" dy="651" grid="1" gridSize="10" guides="1" tooltips="1" connect="1" arrows="1" fold="1" page="1" pageScale="1" pageWidth="827" pageHeight="1169" math="0" shadow="0"><root><mxCell id="0"/><mxCell id="1" parent="0"/><mxCell id="kug-5nJ1MY8cepRI4tOA-3" style="edgeStyle=orthogonalEdgeStyle;rounded=0;orthogonalLoop=1;jettySize=auto;html=1;startArrow=classic;startFill=1;" parent="1" source="kug-5nJ1MY8cepRI4tOA-1" target="kug-5nJ1MY8cepRI4tOA-2" edge="1"><mxGeometry relative="1" as="geometry"/></mxCell><mxCell id="kug-5nJ1MY8cepRI4tOA-4" value="Commands&lt;br&gt;and Information" style="edgeLabel;html=1;align=center;verticalAlign=middle;resizable=0;points=[];" parent="kug-5nJ1MY8cepRI4tOA-3" vertex="1" connectable="0"><mxGeometry x="-0.1529" y="2" relative="1" as="geometry"><mxPoint x="2" y="-10" as="offset"/></mxGeometry></mxCell><mxCell id="kug-5nJ1MY8cepRI4tOA-1" value="Actor" style="shape=umlActor;verticalLabelPosition=bottom;verticalAlign=top;html=1;outlineConnect=0;" parent="1" vertex="1"><mxGeometry x="340" y="610" width="30" height="60" as="geometry"/></mxCell><mxCell id="kug-5nJ1MY8cepRI4tOA-8" style="edgeStyle=orthogonalEdgeStyle;rounded=0;orthogonalLoop=1;jettySize=auto;html=1;startArrow=classic;startFill=1;" parent="1" source="kug-5nJ1MY8cepRI4tOA-2" target="bq3ROBO4nfzvavvYYUcx-10" edge="1"><mxGeometry relative="1" as="geometry"><Array as="points"><mxPoint x="450" y="510"/></Array></mxGeometry></mxCell><mxCell id="kug-5nJ1MY8cepRI4tOA-2" value="Touch-Screen" style="rounded=0;whiteSpace=wrap;html=1;" parent="1" vertex="1"><mxGeometry x="295" y="480" width="120" height="60" as="geometry"/></mxCell><mxCell id="kug-5nJ1MY8cepRI4tOA-9" style="edgeStyle=orthogonalEdgeStyle;rounded=0;orthogonalLoop=1;jettySize=auto;html=1;entryX=0.5;entryY=1;entryDx=0;entryDy=0;startArrow=classic;startFill=1;" parent="1" source="kug-5nJ1MY8cepRI4tOA-5" target="kug-5nJ1MY8cepRI4tOA-7" edge="1"><mxGeometry relative="1" as="geometry"/></mxCell><mxCell id="kug-5nJ1MY8cepRI4tOA-10" value="Exchanging CAN-messages&lt;br&gt;and sensor-data (Serial-Bus)" style="edgeLabel;html=1;align=center;verticalAlign=middle;resizable=0;points=[];" parent="kug-5nJ1MY8cepRI4tOA-9" vertex="1" connectable="0"><mxGeometry x="-0.3" y="-3" relative="1" as="geometry"><mxPoint x="-3" y="-9" as="offset"/></mxGeometry></mxCell><mxCell id="kug-5nJ1MY8cepRI4tOA-5" value="Micro-Computer&lt;br&gt;(at least Raspberry-Pi 4 with 4Gb)" style="rounded=0;whiteSpace=wrap;html=1;" parent="1" vertex="1"><mxGeometry x="295" y="340" width="120" height="60" as="geometry"/></mxCell><mxCell id="kug-5nJ1MY8cepRI4tOA-12" style="edgeStyle=orthogonalEdgeStyle;rounded=0;orthogonalLoop=1;jettySize=auto;html=1;entryX=0;entryY=0.5;entryDx=0;entryDy=0;entryPerimeter=0;startArrow=classic;startFill=1;" parent="1" source="kug-5nJ1MY8cepRI4tOA-7" target="kug-5nJ1MY8cepRI4tOA-11" edge="1"><mxGeometry relative="1" as="geometry"/></mxCell><mxCell id="kug-5nJ1MY8cepRI4tOA-13" value="Reading and writing to &lt;br&gt;CAN-Bus of the car" style="edgeLabel;html=1;align=center;verticalAlign=middle;resizable=0;points=[];" parent="kug-5nJ1MY8cepRI4tOA-12" vertex="1" connectable="0"><mxGeometry x="-0.3313" y="-3" relative="1" as="geometry"><mxPoint x="26" y="-3" as="offset"/></mxGeometry></mxCell><mxCell id="kug-5nJ1MY8cepRI4tOA-7" value="Micro-controller with CAN-interface" style="rounded=0;whiteSpace=wrap;html=1;" parent="1" vertex="1"><mxGeometry x="295" y="220" width="120" height="60" as="geometry"/></mxCell><mxCell id="kug-5nJ1MY8cepRI4tOA-11" value="" style="outlineConnect=0;dashed=0;verticalLabelPosition=bottom;verticalAlign=top;align=center;html=1;shape=mxgraph.aws3.car;fillColor=#5294CF;gradientColor=none;" parent="1" vertex="1"><mxGeometry x="560" y="210.25" width="79.5" height="79.5" as="geometry"/></mxCell><mxCell id="bq3ROBO4nfzvavvYYUcx-4" value="" style="edgeStyle=orthogonalEdgeStyle;rounded=0;orthogonalLoop=1;jettySize=auto;html=1;entryX=0;entryY=0.5;entryDx=0;entryDy=0;startArrow=classic;startFill=1;" parent="1" source="bq3ROBO4nfzvavvYYUcx-2" target="kug-5nJ1MY8cepRI4tOA-5" edge="1"><mxGeometry relative="1" as="geometry"><Array as="points"><mxPoint x="275" y="320"/><mxPoint x="275" y="370"/></Array></mxGeometry></mxCell><mxCell id="bq3ROBO4nfzvavvYYUcx-2" value="GPS" style="sketch=0;points=[[0,0,0],[0.25,0,0],[0.5,0,0],[0.75,0,0],[1,0,0],[0,1,0],[0.25,1,0],[0.5,1,0],[0.75,1,0],[1,1,0],[0,0.25,0],[0,0.5,0],[0,0.75,0],[1,0.25,0],[1,0.5,0],[1,0.75,0]];outlineConnect=0;fontColor=#FFFFFF;gradientColor=#517DFD;gradientDirection=north;fillColor=#2F29AF;strokeColor=#ffffff;dashed=0;verticalLabelPosition=bottom;verticalAlign=top;align=center;html=1;fontSize=12;fontStyle=0;aspect=fixed;shape=mxgraph.aws4.resourceIcon;resIcon=mxgraph.aws4.satellite;spacingTop=-54;spacingRight=6;" parent="1" vertex="1"><mxGeometry x="160" y="289.75" width="78" height="78" as="geometry"/></mxCell><mxCell id="bq3ROBO4nfzvavvYYUcx-8" style="edgeStyle=orthogonalEdgeStyle;rounded=0;orthogonalLoop=1;jettySize=auto;html=1;entryX=0;entryY=0.75;entryDx=0;entryDy=0;startArrow=classic;startFill=1;" parent="1" source="bq3ROBO4nfzvavvYYUcx-6" target="kug-5nJ1MY8cepRI4tOA-5" edge="1"><mxGeometry relative="1" as="geometry"><Array as="points"><mxPoint x="230" y="385"/></Array></mxGeometry></mxCell><mxCell id="bq3ROBO4nfzvavvYYUcx-6" value="LTE" style="sketch=0;points=[[0,0,0],[0.25,0,0],[0.5,0,0],[0.75,0,0],[1,0,0],[0,1,0],[0.25,1,0],[0.5,1,0],[0.75,1,0],[1,1,0],[0,0.25,0],[0,0.5,0],[0,0.75,0],[1,0.25,0],[1,0.5,0],[1,0.75,0]];outlineConnect=0;fontColor=#33FF33;gradientColor=#517DFD;gradientDirection=north;fillColor=#2F29AF;strokeColor=#ffffff;dashed=0;verticalLabelPosition=bottom;verticalAlign=top;align=center;html=1;fontSize=12;fontStyle=0;aspect=fixed;shape=mxgraph.aws4.resourceIcon;resIcon=mxgraph.aws4.satellite;spacingTop=-54;spacingRight=6;labelBackgroundColor=default;labelBorderColor=none;" parent="1" vertex="1"><mxGeometry x="160" y="422" width="78" height="78" as="geometry"/></mxCell><mxCell id="bq3ROBO4nfzvavvYYUcx-7" value="&lt;font color=&quot;#33ff33&quot;&gt;Maybe-feature&lt;/font&gt;" style="text;html=1;strokeColor=none;fillColor=none;align=center;verticalAlign=middle;whiteSpace=wrap;rounded=0;labelBackgroundColor=#000000;" parent="1" vertex="1"><mxGeometry x="144" y="555" width="110" height="30" as="geometry"/></mxCell><mxCell id="bq3ROBO4nfzvavvYYUcx-9" value="definitive Feature" style="text;html=1;strokeColor=none;fillColor=none;align=center;verticalAlign=middle;whiteSpace=wrap;rounded=0;" parent="1" vertex="1"><mxGeometry x="149" y="525" width="100" height="30" as="geometry"/></mxCell><mxCell id="bq3ROBO4nfzvavvYYUcx-13" style="edgeStyle=orthogonalEdgeStyle;rounded=0;orthogonalLoop=1;jettySize=auto;html=1;startArrow=classic;startFill=1;" parent="1" source="bq3ROBO4nfzvavvYYUcx-10" target="kug-5nJ1MY8cepRI4tOA-5" edge="1"><mxGeometry relative="1" as="geometry"/></mxCell><mxCell id="bq3ROBO4nfzvavvYYUcx-21" style="edgeStyle=orthogonalEdgeStyle;rounded=0;orthogonalLoop=1;jettySize=auto;html=1;startArrow=classic;startFill=1;" parent="1" source="bq3ROBO4nfzvavvYYUcx-10" target="bq3ROBO4nfzvavvYYUcx-14" edge="1"><mxGeometry relative="1" as="geometry"/></mxCell><mxCell id="bq3ROBO4nfzvavvYYUcx-10" value="API" style="html=1;strokeWidth=1;shadow=0;dashed=0;shape=mxgraph.ios7.misc.wifi;fillColor=#007AFF;strokeColor=none;buttonText=;strokeColor2=#222222;fontColor=#33FF33;fontSize=8;verticalLabelPosition=bottom;verticalAlign=top;align=center;sketch=0;direction=south;labelBackgroundColor=#000000;" parent="1" vertex="1"><mxGeometry x="440" y="345" width="52" height="50" as="geometry"/></mxCell><mxCell id="bq3ROBO4nfzvavvYYUcx-14" value="WebApp" style="html=1;strokeWidth=1;shadow=0;dashed=0;shape=mxgraph.ios7.misc.wifi;fillColor=#007AFF;strokeColor=none;buttonText=;strokeColor2=#222222;fontColor=#33FF33;fontSize=8;verticalLabelPosition=bottom;verticalAlign=top;align=center;sketch=0;direction=north;labelBackgroundColor=#000000;" parent="1" vertex="1"><mxGeometry x="510" y="343.25" width="50" height="53.5" as="geometry"/></mxCell><mxCell id="bq3ROBO4nfzvavvYYUcx-17" style="edgeStyle=orthogonalEdgeStyle;rounded=0;orthogonalLoop=1;jettySize=auto;html=1;entryX=0.549;entryY=0.988;entryDx=0;entryDy=0;entryPerimeter=0;startArrow=classic;startFill=1;" parent="1" source="bq3ROBO4nfzvavvYYUcx-16" target="bq3ROBO4nfzvavvYYUcx-14" edge="1"><mxGeometry relative="1" as="geometry"><Array as="points"><mxPoint x="600" y="367"/></Array></mxGeometry></mxCell><mxCell id="bq3ROBO4nfzvavvYYUcx-18" style="edgeStyle=orthogonalEdgeStyle;rounded=0;orthogonalLoop=1;jettySize=auto;html=1;startArrow=classic;startFill=1;" parent="1" source="bq3ROBO4nfzvavvYYUcx-16" target="kug-5nJ1MY8cepRI4tOA-1" edge="1"><mxGeometry relative="1" as="geometry"><Array as="points"><mxPoint x="600" y="630"/></Array></mxGeometry></mxCell><mxCell id="bq3ROBO4nfzvavvYYUcx-19" value="Commands&lt;br&gt;and Information" style="edgeLabel;html=1;align=center;verticalAlign=middle;resizable=0;points=[];" parent="bq3ROBO4nfzvavvYYUcx-18" vertex="1" connectable="0"><mxGeometry x="-0.5689" y="1" relative="1" as="geometry"><mxPoint x="-78" y="-1" as="offset"/></mxGeometry></mxCell><mxCell id="bq3ROBO4nfzvavvYYUcx-16" value="" style="html=1;verticalLabelPosition=bottom;labelBackgroundColor=#ffffff;verticalAlign=top;shadow=0;dashed=0;strokeWidth=1;shape=mxgraph.ios7.misc.iphone;strokeColor=#c0c0c0;" parent="1" vertex="1"><mxGeometry x="564.75" y="485" width="70" height="110" as="geometry"/></mxCell><mxCell id="1kwzuOJFV62ugtMtt7bk-1" value="&lt;font style=&quot;background-color: rgb(102, 255, 255);&quot; color=&quot;#000099&quot;&gt;Using a seperate microcontroller for modularity of hardware&lt;/font&gt;" style="text;html=1;strokeColor=none;fillColor=none;align=center;verticalAlign=middle;whiteSpace=wrap;rounded=0;" parent="1" vertex="1"><mxGeometry x="272.5" y="180.25" width="165" height="30" as="geometry"/></mxCell><mxCell id="1kwzuOJFV62ugtMtt7bk-2" value="&lt;font color=&quot;#000099&quot;&gt;&lt;span style=&quot;background-color: rgb(102, 255, 255);&quot;&gt;Decision description&lt;/span&gt;&lt;/font&gt;" style="text;html=1;strokeColor=none;fillColor=none;align=center;verticalAlign=middle;whiteSpace=wrap;rounded=0;" parent="1" vertex="1"><mxGeometry x="116.5" y="584.5" width="165" height="30" as="geometry"/></mxCell></root></mxGraphModel></diagram><diagram id="3xzeAInlUBjt0OYzqVKU" name="Baustein-Sicht"><mxGraphModel dx="1075" dy="449" grid="1" gridSize="10" guides="1" tooltips="1" connect="1" arrows="1" fold="1" page="1" pageScale="1" pageWidth="827" pageHeight="1169" math="0" shadow="0"><root><mxCell id="0"/><mxCell id="1" parent="0"/><mxCell id="3JwKK_K20vSuEXQjIA8J-3" value="View" style="shape=module;align=left;spacingLeft=20;align=center;verticalAlign=top;whiteSpace=wrap;html=1;" parent="1" vertex="1"><mxGeometry x="317" y="640" width="91.18" height="40" as="geometry"/></mxCell><mxCell id="-_PIp6c2TTKtGbvZO-v3-1" value="Bus&lt;br&gt;Transactions" style="shape=module;align=left;spacingLeft=20;align=center;verticalAlign=top;whiteSpace=wrap;html=1;" parent="1" vertex="1"><mxGeometry x="308.55000000000007" y="340" width="108.09" height="60" as="geometry"/></mxCell><mxCell id="-_PIp6c2TTKtGbvZO-v3-2" value="" style="endArrow=none;html=1;rounded=0;" parent="1" edge="1"><mxGeometry width="50" height="50" relative="1" as="geometry"><mxPoint x="80" y="440" as="sourcePoint"/><mxPoint x="760" y="440" as="targetPoint"/></mxGeometry></mxCell><mxCell id="-_PIp6c2TTKtGbvZO-v3-3" value="" style="endArrow=none;html=1;rounded=0;" parent="1" edge="1"><mxGeometry width="50" height="50" relative="1" as="geometry"><mxPoint x="80" y="630" as="sourcePoint"/><mxPoint x="760" y="630" as="targetPoint"/></mxGeometry></mxCell><mxCell id="S5E4gUCanQm0yQMCbTIP-7" style="edgeStyle=orthogonalEdgeStyle;rounded=0;orthogonalLoop=1;jettySize=auto;html=1;entryX=0;entryY=0;entryDx=0;entryDy=35;entryPerimeter=0;startArrow=classic;startFill=1;" parent="1" source="-_PIp6c2TTKtGbvZO-v3-10" target="S5E4gUCanQm0yQMCbTIP-4" edge="1"><mxGeometry relative="1" as="geometry"/></mxCell><mxCell id="S5E4gUCanQm0yQMCbTIP-17" style="edgeStyle=orthogonalEdgeStyle;rounded=0;orthogonalLoop=1;jettySize=auto;html=1;entryX=0;entryY=0;entryDx=0;entryDy=35;entryPerimeter=0;startArrow=classic;startFill=1;" parent="1" source="-_PIp6c2TTKtGbvZO-v3-10" target="3JwKK_K20vSuEXQjIA8J-3" edge="1"><mxGeometry relative="1" as="geometry"><Array as="points"><mxPoint x="200" y="675"/></Array></mxGeometry></mxCell><mxCell id="-_PIp6c2TTKtGbvZO-v3-10" value="API" style="shape=module;align=left;spacingLeft=20;align=center;verticalAlign=top;whiteSpace=wrap;html=1;" parent="1" vertex="1"><mxGeometry x="130" y="560" width="90" height="40" as="geometry"/></mxCell><mxCell id="S5E4gUCanQm0yQMCbTIP-16" style="edgeStyle=orthogonalEdgeStyle;rounded=0;orthogonalLoop=1;jettySize=auto;html=1;exitX=0.5;exitY=0;exitDx=0;exitDy=0;entryX=1;entryY=0.5;entryDx=0;entryDy=0;startArrow=classic;startFill=1;" parent="1" source="S5E4gUCanQm0yQMCbTIP-1" target="S5E4gUCanQm0yQMCbTIP-4" edge="1"><mxGeometry relative="1" as="geometry"><Array as="points"><mxPoint x="534" y="550"/><mxPoint x="470" y="550"/><mxPoint x="470" y="540"/><mxPoint x="450" y="540"/><mxPoint x="450" y="575"/></Array></mxGeometry></mxCell><mxCell id="S5E4gUCanQm0yQMCbTIP-1" value="Air-conditioning Control" style="shape=module;align=left;spacingLeft=20;align=center;verticalAlign=top;whiteSpace=wrap;html=1;" parent="1" vertex="1"><mxGeometry x="488.23" y="560" width="91.18" height="50" as="geometry"/></mxCell><mxCell id="S5E4gUCanQm0yQMCbTIP-18" style="edgeStyle=orthogonalEdgeStyle;rounded=0;orthogonalLoop=1;jettySize=auto;html=1;entryX=0.5;entryY=1;entryDx=0;entryDy=0;startArrow=classic;startFill=1;" parent="1" source="S5E4gUCanQm0yQMCbTIP-4" target="-_PIp6c2TTKtGbvZO-v3-1" edge="1"><mxGeometry relative="1" as="geometry"><mxPoint x="362.5899999999999" y="490" as="targetPoint"/></mxGeometry></mxCell><mxCell id="S5E4gUCanQm0yQMCbTIP-4" value="Events" style="shape=module;align=left;spacingLeft=20;align=center;verticalAlign=top;whiteSpace=wrap;html=1;" parent="1" vertex="1"><mxGeometry x="312" y="550" width="101.18" height="50" as="geometry"/></mxCell><mxCell id="oM6zgwTeDhsFfz0m470S-3" style="edgeStyle=orthogonalEdgeStyle;rounded=0;orthogonalLoop=1;jettySize=auto;html=1;exitX=0.5;exitY=1;exitDx=0;exitDy=0;entryX=1;entryY=0.5;entryDx=0;entryDy=0;startArrow=classic;startFill=1;" parent="1" source="oM6zgwTeDhsFfz0m470S-2" target="S5E4gUCanQm0yQMCbTIP-4" edge="1"><mxGeometry relative="1" as="geometry"><Array as="points"><mxPoint x="534" y="530"/><mxPoint x="470" y="530"/><mxPoint x="470" y="540"/><mxPoint x="450" y="540"/><mxPoint x="450" y="575"/></Array></mxGeometry></mxCell><mxCell id="oM6zgwTeDhsFfz0m470S-2" value="Navigation" style="shape=module;align=left;spacingLeft=20;align=center;verticalAlign=top;whiteSpace=wrap;html=1;" parent="1" vertex="1"><mxGeometry x="488.82" y="470" width="90" height="40" as="geometry"/></mxCell><mxCell id="RohywoqWU4snA6dRgrmz-2" style="edgeStyle=orthogonalEdgeStyle;rounded=0;orthogonalLoop=1;jettySize=auto;html=1;entryX=1;entryY=0.5;entryDx=0;entryDy=0;startArrow=classic;startFill=1;" parent="1" source="RohywoqWU4snA6dRgrmz-1" target="S5E4gUCanQm0yQMCbTIP-4" edge="1"><mxGeometry relative="1" as="geometry"><Array as="points"><mxPoint x="645" y="540"/><mxPoint x="450" y="540"/><mxPoint x="450" y="575"/></Array></mxGeometry></mxCell><mxCell id="RohywoqWU4snA6dRgrmz-1" value="Trip&lt;br&gt;Information" style="shape=module;align=left;spacingLeft=20;align=center;verticalAlign=top;whiteSpace=wrap;html=1;" parent="1" vertex="1"><mxGeometry x="600" y="470" width="90" height="40" as="geometry"/></mxCell><mxCell id="M19hiy6K0hw_IpdpgOGp-2" value="Darstellungsschicht" style="text;html=1;strokeColor=none;fillColor=none;align=center;verticalAlign=middle;whiteSpace=wrap;rounded=0;" vertex="1" parent="1"><mxGeometry x="640" y="640" width="120" height="30" as="geometry"/></mxCell><mxCell id="M19hiy6K0hw_IpdpgOGp-3" value="Verarberitungsschicht" style="text;html=1;strokeColor=none;fillColor=none;align=center;verticalAlign=middle;whiteSpace=wrap;rounded=0;" vertex="1" parent="1"><mxGeometry x="630" y="585" width="130" height="30" as="geometry"/></mxCell><mxCell id="M19hiy6K0hw_IpdpgOGp-4" value="Kommunikationsschicht" style="text;html=1;strokeColor=none;fillColor=none;align=center;verticalAlign=middle;whiteSpace=wrap;rounded=0;" vertex="1" parent="1"><mxGeometry x="620" y="390" width="140" height="30" as="geometry"/></mxCell></root></mxGraphModel></diagram></mxfile>